<svg width="557" height="198" viewBox="0 0 557 198" fill="none" xmlns="http://www.w3.org/2000/svg">
<path d="M75.367 5.45002H58.546V149.363C58.546 156.305 57.923 162.713 56.677 168.587C55.431 174.461 53.384 179.534 50.536 183.806C47.866 188.078 44.306 191.46 39.856 193.952C35.584 196.444 30.422 197.69 24.37 197.69C21.522 197.69 18.674 197.245 15.826 196.355C12.978 195.465 10.397 194.13 8.08302 192.35C5.94702 190.57 4.16702 188.256 2.74302 185.408C1.49702 182.738 0.874023 179.534 0.874023 175.796C0.874023 171.702 1.85302 168.142 3.81102 165.116C5.94702 161.912 8.88402 160.31 12.622 160.31C15.292 160.31 17.339 161.467 18.763 163.781C20.365 166.095 21.166 169.032 21.166 172.592C21.166 176.152 20.098 178.644 17.962 180.068C16.004 181.67 13.245 183.272 9.68502 184.874C14.491 190.036 18.941 192.617 23.035 192.617C26.239 192.617 28.909 191.282 31.045 188.612C33.359 185.942 34.516 181.759 34.516 176.063C34.516 174.105 34.249 172.147 33.715 170.189C33.181 168.231 32.469 166.184 31.579 164.048C30.511 161.378 29.532 158.441 28.642 155.237C27.93 152.033 27.574 148.918 27.574 145.892V5.45002H9.41802V0.911011H75.367V5.45002Z" fill="black"/>
<path d="M74.531 0.911011H224.051V5.45002C218.533 5.45002 214.083 5.89502 210.701 6.78502C207.497 7.67501 204.916 9.18801 202.958 11.324C201 13.282 199.398 15.952 198.152 19.334C196.906 22.716 195.66 26.899 194.414 31.883L190.142 47.903L214.439 134.144C215.685 130.584 217.109 126.312 218.711 121.328C220.491 116.344 222.004 111.983 223.25 108.245C225.03 102.905 226.988 97.031 229.124 90.623C231.26 84.037 233.396 77.451 235.532 70.865C237.846 64.279 239.982 57.871 241.94 51.641C243.898 45.233 245.678 39.448 247.28 34.286C248.882 28.946 250.128 24.496 251.018 20.936C251.908 17.198 252.353 14.706 252.353 13.46C252.353 11.324 251.641 9.72202 250.217 8.65402C248.971 7.40802 247.369 6.60702 245.411 6.25102C243.631 5.71702 241.762 5.45002 239.804 5.45002C238.024 5.45002 236.511 5.45002 235.265 5.45002H234.998V0.911011H282.524V5.45002C277.184 5.45002 273.09 5.62802 270.242 5.98403C267.394 6.16202 265.08 6.96302 263.3 8.38701C261.698 9.63302 260.274 11.769 259.028 14.795C257.96 17.643 256.536 21.648 254.756 26.81L253.421 30.815L203.759 185.141H199.487L174.389 97.565L149.558 185.141C148.49 185.141 147.333 185.141 146.087 185.141C145.019 185.319 144.04 185.408 143.15 185.408L87.881 5.45002H74.531V0.911011ZM171.185 90.356L145.019 5.45002H117.785L157.301 137.081L171.185 90.356ZM187.739 41.228C187.917 40.872 188.362 39.27 189.074 36.422C189.964 33.574 190.854 30.459 191.744 27.077C192.812 23.695 193.702 20.491 194.414 17.465C195.304 14.439 195.749 12.57 195.749 11.858C195.749 10.256 195.304 9.09901 194.414 8.38701C193.702 7.49701 192.723 6.87401 191.477 6.51802C190.409 5.98401 189.252 5.71701 188.006 5.71701C186.938 5.53901 186.048 5.45002 185.336 5.45002H177.593L187.739 41.228Z" fill="black"/>
<path d="M413.181 119.993V179H281.55V174.461H298.371V5.45002H281.55V0.911011H347.232V5.45002H328.542V174.461H359.781C367.969 174.461 375.089 174.105 381.141 173.393C387.371 172.503 392.533 170.278 396.627 166.718C400.721 163.158 403.747 157.729 405.705 150.431C407.841 143.133 408.909 132.987 408.909 119.993H413.181Z" fill="black"/>
<path d="M456.795 174.461H473.082V179H412.74V174.461H427.425V5.45002H414.74V0.911011H489.903C495.777 0.911011 501.562 1.62301 507.258 3.04702C512.954 4.47102 517.938 6.87402 522.21 10.256C526.66 13.46 530.22 17.821 532.89 23.339C535.738 28.679 537.162 35.443 537.162 43.631C537.162 49.861 536.183 55.29 534.225 59.918C532.445 64.546 529.953 68.551 526.749 71.933C523.545 75.137 519.807 77.807 515.535 79.943C511.263 82.079 506.724 83.681 501.918 84.749V87.686C509.394 89.644 515.179 92.848 519.273 97.298C523.545 101.57 526.749 106.465 528.885 111.983C531.021 117.501 532.356 123.375 532.89 129.605C533.424 135.657 533.78 141.442 533.958 146.96C534.136 150.876 534.314 154.614 534.492 158.174C534.848 161.556 535.382 164.582 536.094 167.252C536.806 169.744 537.874 171.791 539.298 173.393C540.722 174.817 542.68 175.529 545.172 175.529C546.774 175.529 548.287 175.351 549.711 174.995C551.135 174.461 552.559 173.927 553.983 173.393C554.161 173.393 554.339 173.304 554.517 173.126L556.119 177.131C553.093 178.555 550.067 179.534 547.041 180.068C544.193 180.602 541.256 180.869 538.23 180.869C530.398 180.869 524.257 179.712 519.807 177.398C515.357 175.084 511.886 171.88 509.394 167.786C507.08 163.692 505.478 158.797 504.588 153.101C503.876 147.405 503.253 141.086 502.719 134.144C502.541 132.008 502.363 129.783 502.185 127.469C502.007 125.155 501.74 122.752 501.384 120.26C500.494 112.606 498.625 106.643 495.777 102.371C493.107 98.099 489.725 94.984 485.631 93.026C481.715 90.89 477.265 89.644 472.281 89.288C467.297 88.754 462.135 88.487 456.795 88.487V174.461ZM456.795 5.45002V84.215H465.339C470.323 84.215 475.218 83.503 480.024 82.079C485.008 80.655 489.369 78.43 493.107 75.404C496.845 72.2 499.871 68.195 502.185 63.389C504.499 58.405 505.656 52.353 505.656 45.233C505.656 37.223 504.588 30.637 502.452 25.475C500.316 20.313 497.379 16.308 493.641 13.46C489.903 10.434 485.542 8.38702 480.558 7.31902C475.574 6.07302 470.234 5.45002 464.538 5.45002H456.795Z" fill="black"/>
</svg>
