<svg width="304" height="197" viewBox="0 0 304 197" fill="none" xmlns="http://www.w3.org/2000/svg">
<path fill-rule="evenodd" clip-rule="evenodd" d="M48 30.0001C19 66.0001 -26.8 139.6 22 146C83 154 49 86.0001 126 119C203 152 159 224 231 185C303 146 316 131 292 100C268 69.0001 277 20.0001 241 30.0001C205 40.0001 221 60 231 68C241 76 269 90.0001 255 100C241 110 225 156 213 128C201 100 191 58 184 79C177 100 140 121 133 100C126 79 137 57 148 56C159 55 174 28 157 24C140 20 117 23 113 36C109 49 115 80 100 68C85 56 79 45.0002 77 30.0001C75 15 63 -12 59 6.00001C55.8 20.4 50.3333 28.0001 48 30.0001ZM26 102C19.6 92.4001 38.6667 76.6667 49 70.0001C50 67.6667 52.4 63.0001 54 63.0001C56 63.0001 79 62.5001 81.5 63.0001C84 63.5001 101 70.0001 113 82.5001C125 95.0001 119.5 95.5001 88.5 86.5001C69.5 67.0001 83 88.5001 73.5 99.5001C64 110.5 66.5 106 43 111.5C19.5 117 34 114 26 102Z" fill="black"/>
</svg>
