<svg width="401" height="386" viewBox="0 0 401 386" fill="none" xmlns="http://www.w3.org/2000/svg">
<path fill-rule="evenodd" clip-rule="evenodd" d="M21.2763 113.302C21.2564 113.713 21.2033 114.117 21.1304 114.515C19.5207 123.219 14.0753 151.533 9.70158 161.526C6.78488 171.9 -27.4148 300.445 52.951 347.225C60.1621 351.353 230.83 446.661 360.306 319.244C364.449 313.532 400.252 262.194 400.252 196.538C400.252 164.475 391.656 129.099 366.556 94.1334C288.162 -15.0557 190.672 0.429184 186.563 1.13816C186.01 1.23051 185.452 1.28365 184.892 1.29719C183.328 1.33032 28.726 5.34566 21.2763 113.302ZM102.574 112.832C104.45 114.767 106.339 116.695 108.294 118.636L122.895 134.187C125.52 136.984 125.082 141.045 122.285 143.669C119.502 146.286 114.809 145.823 112.178 143.026L98.4846 128.469C97.0464 127.045 95.6147 125.567 94.1831 124.096C90.1998 129.914 86.6671 135.937 84.3075 142.37C83.6622 144.084 82.366 145.473 80.7011 146.236C79.0361 146.999 77.1373 147.074 75.4176 146.444C73.6979 145.814 72.2967 144.53 71.5187 142.873C70.7408 141.215 70.6492 139.318 71.2638 137.593C74.4784 128.814 79.1974 120.962 84.5263 113.561C79.1113 107.094 74.3259 100.05 71.2638 91.6686C70.9502 90.8121 70.8088 89.9021 70.8477 88.9908C70.8866 88.0795 71.1051 87.1848 71.4905 86.3581C71.876 85.5314 72.4209 84.789 73.094 84.1732C73.7671 83.5575 74.5551 83.0806 75.4129 82.7699C76.2693 82.456 77.1792 82.3139 78.0906 82.3518C79.002 82.3897 79.897 82.6069 80.7243 82.9909C81.5517 83.3749 82.2952 83.9183 82.9123 84.5898C83.5294 85.2613 84.008 86.0479 84.3208 86.9045C86.3755 92.53 89.5568 97.5193 93.2817 102.29C95.4954 99.6131 97.7158 96.9362 99.956 94.3123L112.012 79.5961C114.445 76.6277 118.978 75.9916 121.947 78.4167C124.91 80.8484 125.513 85.0095 123.081 87.9846L110.541 103.304C107.876 106.438 105.192 109.618 102.574 112.832ZM263.446 88.7863C271.223 94.8873 279.48 100.352 288.135 105.126C289.745 106.021 290.934 107.517 291.442 109.287C291.95 111.057 291.736 112.956 290.846 114.568C288.983 117.914 284.761 119.12 281.408 117.265C272.83 112.546 264.617 107.192 256.838 101.25C252.417 110.023 248.58 118.802 246.2 126.866C245.961 127.76 245.544 128.598 244.976 129.329C244.407 130.061 243.698 130.671 242.89 131.124C242.082 131.577 241.191 131.864 240.27 131.968C239.35 132.072 238.417 131.991 237.529 131.729C236.64 131.467 235.813 131.031 235.095 130.444C234.378 129.858 233.785 129.134 233.352 128.316C232.918 127.497 232.653 126.6 232.572 125.677C232.491 124.755 232.595 123.825 232.878 122.943C235.788 113.057 240.434 102.595 245.796 92.2119C238.903 86.1889 232.176 79.6093 224.951 72.1882C224.316 71.5343 223.815 70.7617 223.478 69.9143C223.141 69.0669 222.974 68.1615 222.987 67.2496C223 66.3378 223.192 65.4374 223.553 64.5999C223.914 63.7624 224.436 63.0042 225.091 62.3686C225.745 61.733 226.518 61.2323 227.365 60.8953C228.213 60.5583 229.119 60.3915 230.031 60.4044C230.943 60.4174 231.843 60.6098 232.681 60.9707C233.519 61.3315 234.277 61.8539 234.913 62.5078C240.615 68.443 246.522 74.1779 252.623 79.7021C256.231 73.3875 259.952 67.1382 263.784 60.9573C264.257 60.1703 264.882 59.485 265.622 58.9413C266.363 58.3976 267.203 58.0061 268.096 57.7897C268.989 57.5733 269.916 57.5362 270.823 57.6806C271.73 57.825 272.599 58.148 273.38 58.6308C274.162 59.1137 274.839 59.7468 275.374 60.4935C275.909 61.2401 276.29 62.0854 276.495 62.9804C276.701 63.8755 276.726 64.8024 276.571 65.7074C276.415 66.6123 276.081 67.4774 275.589 68.2525C271.397 75.0109 267.349 81.857 263.446 88.7863ZM368.074 166.933C366.808 170.557 363.507 172.644 359.882 171.392L347.574 167.118C346.461 191.879 340.661 217.337 330.852 241.197C358.762 249.499 371.574 267.402 366.669 292.077C364.25 304.289 359.497 311.419 352.147 313.824C339.514 318.011 325.881 305.674 313.858 294.781L304.884 287.234C298.13 296.238 290.733 304.786 282.256 312.286C271.104 322.19 263.012 322.265 254.458 322.345L254.452 322.345L240.911 323.484C236.033 324.458 231.997 326.638 227.735 328.944L227.657 328.986C221.877 332.103 215.334 335.632 206.44 336.087C192.342 336.829 170.57 333.503 156.068 324.472C145.325 317.779 136.721 308.486 128.411 299.511L128.363 299.459L120.781 291.421C113.086 283.563 105.04 282.615 93.8981 281.303L80.6423 279.382C54.177 274.288 47.1484 252.015 40.9459 232.359L40.9413 232.344L36.6397 220.232C31.9008 222.571 27.5595 225.162 24.6565 227.56C23.2336 228.732 21.4032 229.291 19.5679 229.114C17.7327 228.937 16.0429 228.039 14.8704 226.616C13.698 225.194 13.1388 223.364 13.3159 221.529C13.493 219.694 14.392 218.005 15.8149 216.833C24.9415 209.306 45.4084 199.798 58.081 198.817C59.9197 198.676 61.7389 199.272 63.1385 200.472C64.5381 201.672 65.4034 203.379 65.544 205.218C65.6846 207.056 65.089 208.875 63.8883 210.274C62.6876 211.673 60.9801 212.538 59.1414 212.678C56.5897 212.877 53.1763 213.739 49.4779 214.958L54.1904 228.17C60.8515 249.28 65.8157 262.38 83.2669 265.719L95.5286 267.502C107.903 268.959 119.588 270.344 130.716 281.714L138.557 290.037C146.265 298.359 154.232 306.959 163.418 312.671C173.333 318.866 191.52 322.961 205.717 322.212C211.517 321.907 215.971 319.515 221.121 316.732L221.154 316.715C225.911 314.148 231.284 311.25 238.194 309.861L254.313 308.45C261.948 308.39 265.779 308.351 273.057 301.904C283.044 293.053 291.833 282.938 299.204 271.815C300.038 270.554 300.859 269.283 301.666 268L312.923 275.943L323.15 284.477C330.037 290.706 342.828 302.275 347.773 300.645C349.337 300.128 351.537 296.894 353.042 289.361C354.354 282.774 352.027 257.518 319 248.5L313.858 245.655C326.255 219.228 333.314 190.071 333.881 162.182C331.448 161.46 329.003 160.857 326.504 160.592C324.674 160.385 323 159.463 321.847 158.027C320.695 156.59 320.158 154.756 320.353 152.926C320.563 151.096 321.488 149.424 322.925 148.272C324.362 147.12 326.197 146.583 328.028 146.777C336.112 147.668 343.163 150.513 349.987 153.267L350.059 153.297L363.183 157.902C366.808 159.167 369.34 163.315 368.074 166.933ZM337.131 288.868C335.347 288.701 333.696 287.852 332.522 286.498C331.651 285.394 330.774 284.24 329.886 283.071C325.594 277.422 321.036 271.421 315.5 269L304.884 262.708C307.035 259.045 309.077 255.305 311.006 251.5C312.504 252.833 316.2 255.7 319 256.5C331 260.1 340.283 272.247 343.425 277.871C344.473 279.324 344.921 281.125 344.674 282.9C344.427 284.674 343.505 286.285 342.1 287.397C340.695 288.509 338.915 289.036 337.131 288.868Z" fill="black"/>
</svg>
