<svg width="373" height="162" viewBox="0 0 373 162" fill="none" xmlns="http://www.w3.org/2000/svg">
<path d="M21.531 147.245L3.72899 149.522V149.315C3.31499 149.453 2.90099 149.591 2.48699 149.729C2.90099 148.763 3.31499 147.866 3.72899 147.038V99.842C4.97099 89.768 4.21199 68.171 1.45199 35.051L0.830994 2.34496L6.62699 4.20796C10.215 4.75996 14.01 4.82896 18.012 4.41496C20.496 22.631 21.738 38.294 21.738 51.404V67.136L24.429 122.612L43.473 125.303L42.645 108.329C42.645 91.079 42.162 73.415 41.196 55.337C39.264 39.191 37.332 22.424 35.4 5.03596C40.368 4.48396 43.749 4.13897 45.543 4.00097C47.475 3.72496 50.787 2.48296 55.479 0.274965L56.1 44.159C56.79 50.645 57.135 55.268 57.135 58.028L58.998 94.874L60.447 125.303L75.972 122.612L78.663 103.154L77.007 51.404C76.593 34.016 77.421 18.353 79.491 4.41496C83.493 4.82896 87.288 4.75996 90.876 4.20796L95.223 10.418L94.188 37.949C96.258 71.759 97.224 100.946 97.086 125.51L97.2373 141.242L97.2651 144.14L97.293 147.038C97.707 147.866 98.121 148.763 98.535 149.729C98.121 149.591 97.707 149.453 97.293 149.315V149.522L79.491 147.245H21.531Z" fill="black"/>
<path d="M159.687 141.242C146.715 146.486 138.987 149.522 136.503 150.35C125.601 154.076 116.355 155.801 108.765 155.525L108.727 141.242L108.716 137L108.351 0.274965C122.013 9.10697 128.844 13.868 128.844 14.558C128.844 14.834 128.361 16.559 127.395 19.733C126.429 22.907 125.808 25.184 125.532 26.564C124.98 30.704 124.635 36.362 124.497 43.538V58.649C130.983 62.099 139.263 67.619 149.337 75.209C160.377 83.765 165.966 89.285 166.104 91.769L161.245 129.236L160.466 135.239L159.687 141.242ZM146.025 105.017C146.025 102.119 143.058 97.91 137.124 92.39C132.984 88.526 129.465 85.559 126.567 83.489V90.113C126.429 93.839 127.188 100.946 128.844 111.434C130.224 121.094 131.121 126.338 131.535 127.166C136.365 124.544 140.16 122.612 142.92 121.37C144.99 111.986 146.025 106.535 146.025 105.017ZM195.084 97.151V112.262C195.13 114.654 195.199 116.877 195.291 118.932C195.475 123.041 195.751 126.476 196.119 129.236C196.395 130.616 196.809 134.894 197.361 142.07C198.051 149.384 198.396 153.179 198.396 153.455C198.396 154.145 191.91 154.835 178.938 155.525L179.008 129.236L179.026 122.612L179.352 0.274965C186.942 -0.00103973 192.255 0.688959 195.291 2.34496C194.187 32.429 193.842 57.959 194.256 78.935L195.084 97.151Z" fill="black"/>
<path d="M227.512 147.245L209.71 149.522V149.315C209.296 149.453 208.882 149.591 208.468 149.729C208.882 148.763 209.296 147.866 209.71 147.038V127.166V123.44V99.842C210.952 89.768 210.193 68.171 207.433 35.051L206.812 2.34496L212.608 4.20796C216.196 4.75996 219.991 4.82896 223.993 4.41496C226.477 22.631 227.719 38.294 227.719 51.404V67.136L230.41 122.612L249.454 125.303L248.626 108.329C248.626 91.079 248.143 73.415 247.177 55.337C245.245 39.191 243.313 22.424 241.381 5.03596C246.349 4.48396 249.73 4.13897 251.524 4.00097C253.456 3.72496 256.768 2.48296 261.46 0.274965L262.081 44.159C262.771 50.645 263.116 55.268 263.116 58.028L264.979 94.874L266.428 125.303L281.953 122.612L284.644 103.154L282.988 51.404C282.574 34.016 283.402 18.353 285.472 4.41496C289.474 4.82896 293.269 4.75996 296.857 4.20796L301.204 10.418L300.169 37.949C301.98 67.5327 302.946 93.5769 303.067 116.082C303.075 117.57 303.079 119.043 303.08 120.5C303.081 122.191 303.076 123.861 303.067 125.51L303.274 147.038C303.688 147.866 304.102 148.763 304.516 149.729C304.102 149.591 303.688 149.453 303.274 149.315V149.522L285.472 147.245H227.512Z" fill="black"/>
<path d="M372.293 86.387L371.879 145.796C371.879 152.834 372.017 158.147 372.293 161.735C362.633 149.591 354.56 141.173 348.074 136.481C348.626 135.101 349.316 131.099 350.144 124.475C350.972 117.161 351.386 110.813 351.386 105.431C351.386 100.739 349.178 97.496 344.762 95.702C343.382 95.15 339.035 94.322 331.721 93.218C331.031 94.598 330.272 98.117 329.444 103.775C328.616 109.295 328.202 114.056 328.202 118.058V132.755C328.202 133.307 327.857 134.549 327.167 136.481C323.855 137.171 320.336 139.862 316.61 144.554C313.85 148.004 311.158 151.523 308.536 155.111C308.26 151.937 308.123 147.935 308.123 143.105C308.123 133.456 308.339 124.448 308.771 116.082C308.869 114.188 308.978 112.328 309.098 110.5C310.033 96.2614 311.64 84.0147 313.919 73.76C315.161 68.516 320.129 57.545 328.823 40.847C336.413 26.357 342.761 15.041 347.867 6.89897C351.869 14.489 356.492 26.702 361.736 43.538C366.98 60.374 370.499 74.657 372.293 86.387ZM353.249 82.454L343.727 44.366C341.243 48.782 337.448 58.787 332.342 74.381C338.966 76.589 345.935 79.28 353.249 82.454Z" fill="black"/>
<path d="M108.716 137L97.2373 141.242L97.2651 144.14L108.727 141.242L108.716 137Z" fill="black"/>
<path d="M179.026 122.612L161.245 129.236L160.466 135.239L179.008 129.236L179.026 122.612Z" fill="black"/>
<path d="M209.71 123.44L195.084 112.262C195.13 114.654 195.199 116.877 195.291 118.932L209.71 127.166V123.44Z" fill="black"/>
<path d="M309.098 110.5L303.067 116.082C303.075 117.57 303.079 119.043 303.08 120.5L308.771 116.082C308.869 114.188 308.978 112.328 309.098 110.5Z" fill="black"/>
</svg>
